<?xml version="1.0" encoding="UTF-8" standalone="no"?>
<!DOCTYPE svg PUBLIC "-//W3C//DTD SVG 1.1//EN" "http://www.w3.org/Graphics/SVG/1.1/DTD/svg11.dtd">
<svg width="100%" height="100%" viewBox="0 0 500 500" version="1.1" xmlns="http://www.w3.org/2000/svg" xmlns:xlink="http://www.w3.org/1999/xlink" xml:space="preserve" xmlns:serif="http://www.serif.com/" style="fill-rule:evenodd;clip-rule:evenodd;stroke-linejoin:round;stroke-miterlimit:2;">
    <g transform="matrix(4.65559,0,0,4.65559,16.4542,9.63579)">
        <path d="M27.293,23.137C27.297,23.125 27.301,23.114 27.301,23.102C28.227,18.778 32.047,15.692 36.469,15.692L63.864,15.692C68.286,15.692 72.102,18.778 73.032,23.102C73.032,23.114 73.036,23.125 73.04,23.137L73.59,25.723C73.899,27.164 75.172,28.192 76.649,28.192L84.54,28.192C87.028,28.192 89.415,29.18 91.169,30.938C92.93,32.696 93.915,35.078 93.915,37.567L93.915,78.192C93.915,80.68 92.93,83.063 91.169,84.821C89.415,86.578 87.028,87.567 84.54,87.567L15.79,87.567C13.305,87.567 10.919,86.578 9.165,84.821C7.403,83.063 6.415,80.68 6.415,78.192L6.415,37.567C6.415,35.078 7.403,32.696 9.165,30.938C10.919,29.18 13.305,28.192 15.79,28.192L23.684,28.192C25.161,28.192 26.43,27.164 26.743,25.719L27.293,23.137ZM50.164,34.442C38.957,34.442 29.852,43.544 29.852,54.754C29.852,65.965 38.957,75.066 50.164,75.066C61.375,75.066 70.476,65.964 70.476,54.754C70.476,43.543 61.374,34.442 50.164,34.442ZM50.164,40.692C57.93,40.692 64.226,46.993 64.226,54.754C64.226,62.516 57.929,68.816 50.164,68.816C42.402,68.816 36.102,62.515 36.102,54.754C36.102,46.992 42.403,40.692 50.164,40.692Z" style="fill:rgb(56,101,166);"/>
    </g>
</svg>
